<?xml version="1.0" encoding="utf-8"?>
<!-- Generator: Adobe Illustrator 23.0.3, SVG Export Plug-In . SVG Version: 6.00 Build 0)  -->
<svg version="1.1" id="Layer_1" xmlns="http://www.w3.org/2000/svg" xmlns:xlink="http://www.w3.org/1999/xlink" x="0px" y="0px"
	 viewBox="0 0 1000 1000" style="enable-background:new 0 0 1000 1000;" xml:space="preserve">
<style type="text/css">
	.st0{fill-rule:evenodd;clip-rule:evenodd;fill:#FFFFFF;}
	.st1{fill:#FFFFFF;}
	.st2{font-family:'Catamaran-Black';}
	.st3{font-size:159.9505px;}
	.st4{font-family:'Catamaran-ExtraLight';}
	.st5{font-size:99.4588px;}
	.st6{letter-spacing:10;}
</style>
<path class="st0" d="M380.15,607.1c-20.98,0.4-40.55-0.63-58.36-3.05c135.75-5.62,280.69-58.35,391.89-135
	c78.05-53.79,127.14-114.48,125.62-165.14c-2.26-74.92-108.55-87.17-157.26-91.12c-36.81-2.98-77.46-2.23-120.2,2.54
	c75.24-16.1,146.93-18.93,205.07-10.3c48.55,7.21,139.58,33.49,141.64,101.61c2.05,68.02-87.19,154.13-215.21,217.34
	c-25.69,76.98-98.34,132.5-183.96,132.5C459.74,656.48,414.45,637.81,380.15,607.1z"/>
<path class="st0" d="M509.38,268.71c99.88,0,182.11,75.56,192.71,172.61c33.45-18.42,62.96-38.51,87.67-59.24
	c-37.42,44.75-99.07,89.99-176.85,125.66c-159.9,73.31-327.51,78.5-374.3,11.6c-31.5-45.05-0.21-111.33,72.39-172.2
	c-39.49,47.23-51.99,93.93-27.96,128.28c8.57,12.26,21.22,22.09,37.1,29.53c-3.05-13.64-4.65-27.8-4.65-42.36
	C315.5,355.53,402.32,268.71,509.38,268.71z"/>
<path class="st0" d="M507.71,135.87c-10.48,54.81-7.54,50.22-61.17,61.17c54.8,10.48,50.22,7.54,61.17,61.17
	c10.48-54.8,7.53-50.22,61.17-61.17C514.07,186.57,518.65,189.5,507.71,135.87z"/>
<path class="st0" d="M570.35,103.12c-5.88,30.74-4.23,28.18-34.32,34.31c30.74,5.88,28.17,4.24,34.32,34.32
	c5.87-30.74,4.23-28.17,34.31-34.32C573.92,131.56,576.48,133.21,570.35,103.12z"/>
<path class="st0" d="M704.63,269.18c-3.44,17.99-2.47,16.48-20.07,20.07c17.98,3.44,16.48,2.47,20.07,20.07
	c3.44-17.98,2.47-16.48,20.06-20.07C706.72,285.82,708.22,286.77,704.63,269.18z"/>
<text transform="matrix(1 0 0 1 134.5653 803.645)"><tspan x="0" y="0" class="st1 st2 st3">PRESTIGE</tspan><tspan x="64.69" y="104.46" class="st1 st4 st5 st6">WORLDWIDE</tspan></text>
</svg>
