<?xml version="1.0" encoding="UTF-8" standalone="no"?>
<!-- Created with Inkscape (http://www.inkscape.org/) -->
<svg
   xmlns:dc="http://purl.org/dc/elements/1.1/"
   xmlns:cc="http://creativecommons.org/ns#"
   xmlns:rdf="http://www.w3.org/1999/02/22-rdf-syntax-ns#"
   xmlns:svg="http://www.w3.org/2000/svg"
   xmlns="http://www.w3.org/2000/svg"
   xmlns:xlink="http://www.w3.org/1999/xlink"
   xmlns:sodipodi="http://sodipodi.sourceforge.net/DTD/sodipodi-0.dtd"
   xmlns:inkscape="http://www.inkscape.org/namespaces/inkscape"
   id="svg2"
   sodipodi:version="0.32"
   inkscape:version="0.46"
   width="402.01581"
   height="398.35236"
   sodipodi:docname="dunya.svg"
   inkscape:output_extension="org.inkscape.output.svg.inkscape"
   version="1.0">
  <metadata
     id="metadata7">
    <rdf:RDF>
      <cc:Work
         rdf:about="">
        <dc:format>image/svg+xml</dc:format>
        <dc:type
           rdf:resource="http://purl.org/dc/dcmitype/StillImage" />
      </cc:Work>
    </rdf:RDF>
  </metadata>
  <defs
     id="defs5">
    <linearGradient
       id="linearGradient3180">
      <stop
         id="stop3186"
         offset="0"
         style="stop-color:#ffffff;stop-opacity:1;" />
      <stop
         style="stop-color:#ffffff;stop-opacity:0;"
         offset="1"
         id="stop3188" />
    </linearGradient>
    <linearGradient
       id="linearGradient3273">
      <stop
         style="stop-color:#ffffff;stop-opacity:0;"
         offset="0"
         id="stop3275" />
      <stop
         id="stop3289"
         offset="0.5"
         style="stop-color:#ffffff;stop-opacity:0;" />
      <stop
         style="stop-color:#000000;stop-opacity:0.21602787;"
         offset="1"
         id="stop3283" />
      <stop
         id="stop3277"
         offset="1"
         style="stop-color:#ffffff;stop-opacity:0.59233451;" />
    </linearGradient>
    <linearGradient
       id="linearGradient3195">
      <stop
         id="stop3199"
         offset="0"
         style="stop-color:#ffffff;stop-opacity:1;" />
      <stop
         style="stop-color:#ffffff;stop-opacity:0;"
         offset="1"
         id="stop3201" />
    </linearGradient>
    <linearGradient
       id="linearGradient3175">
      <stop
         id="stop3177"
         offset="0"
         style="stop-color:#41a0ee;stop-opacity:1;" />
      <stop
         style="stop-color:#378be4;stop-opacity:1;"
         offset="0.64377683"
         id="stop3191" />
      <stop
         id="stop3179"
         offset="1"
         style="stop-color:#2d77db;stop-opacity:1;" />
    </linearGradient>
    <linearGradient
       id="linearGradient3159">
      <stop
         id="stop3161"
         offset="0"
         style="stop-color:#b0dc18;stop-opacity:1;" />
      <stop
         style="stop-color:#3ea20c;stop-opacity:1;"
         offset="0.56223178"
         id="stop3187" />
      <stop
         id="stop3163"
         offset="1"
         style="stop-color:#006900;stop-opacity:1;" />
    </linearGradient>
    <inkscape:perspective
       sodipodi:type="inkscape:persp3d"
       inkscape:vp_x="0 : 526.18109 : 1"
       inkscape:vp_y="0 : 1000 : 0"
       inkscape:vp_z="744.09448 : 526.18109 : 1"
       inkscape:persp3d-origin="372.04724 : 350.78739 : 1"
       id="perspective9" />
    <inkscape:perspective
       id="perspective2489"
       inkscape:persp3d-origin="372.04724 : 350.78739 : 1"
       inkscape:vp_z="744.09448 : 526.18109 : 1"
       inkscape:vp_y="0 : 1000 : 0"
       inkscape:vp_x="0 : 526.18109 : 1"
       sodipodi:type="inkscape:persp3d" />
    <radialGradient
       inkscape:collect="always"
       xlink:href="#linearGradient3159"
       id="radialGradient3185"
       gradientUnits="userSpaceOnUse"
       gradientTransform="matrix(0.5002429,1.4674024,-1.2539857,0.4274882,2324.404,828.29789)"
       cx="65.333183"
       cy="1808.0941"
       fx="65.333183"
       fy="1808.0941"
       r="195.94841" />
    <radialGradient
       inkscape:collect="always"
       xlink:href="#linearGradient3175"
       id="radialGradient3189"
       gradientUnits="userSpaceOnUse"
       gradientTransform="matrix(1.105165,1.228066,-0.8683345,0.7814343,1473.1011,172.79095)"
       cx="127.83543"
       cy="1736.9607"
       fx="127.83543"
       fy="1736.9607"
       r="199.63403" />
    <radialGradient
       inkscape:collect="always"
       xlink:href="#linearGradient3195"
       id="radialGradient3207"
       cx="13.846332"
       cy="1679.6958"
       fx="13.846332"
       fy="1679.6958"
       r="199.13403"
       gradientUnits="userSpaceOnUse"
       gradientTransform="matrix(0.1992334,1.195744,-1.1829727,0.1971052,1996.7215,1257.5875)" />
    <filter
       inkscape:collect="always"
       id="filter3267">
      <feGaussianBlur
         inkscape:collect="always"
         stdDeviation="0.97583505"
         id="feGaussianBlur3269" />
    </filter>
    <radialGradient
       inkscape:collect="always"
       xlink:href="#linearGradient3273"
       id="radialGradient3279"
       gradientUnits="userSpaceOnUse"
       gradientTransform="matrix(-9.7260779e-2,1.2265451,-1.1119176,-8.8171448e-2,1878.8992,1750.2547)"
       cx="72.752945"
       cy="1522.2618"
       fx="72.752945"
       fy="1522.2618"
       r="199.13403" />
    <radialGradient
       inkscape:collect="always"
       xlink:href="#linearGradient3273"
       id="radialGradient3287"
       gradientUnits="userSpaceOnUse"
       gradientTransform="matrix(-0.1087803,1.4752039,-1.9297648,-0.1423,3255.8728,1823.5882)"
       cx="5.8389463"
       cy="1673.207"
       fx="5.8389463"
       fy="1673.207"
       r="199.13403" />
    <linearGradient
       inkscape:collect="always"
       xlink:href="#linearGradient3180"
       id="linearGradient3192"
       x1="33.733219"
       y1="1559.6764"
       x2="117.03374"
       y2="1632.8601"
       gradientUnits="userSpaceOnUse" />
    <radialGradient
       inkscape:collect="always"
       xlink:href="#linearGradient3180"
       id="radialGradient3196"
       cx="-90.184074"
       cy="1676.9956"
       fx="-90.184074"
       fy="1676.9956"
       r="199.13403"
       gradientUnits="userSpaceOnUse"
       gradientTransform="matrix(0.466646,1.4600162,-1.3948135,0.4458064,2272.5859,931.37623)" />
    <filter
       inkscape:collect="always"
       id="filter3197">
      <feGaussianBlur
         inkscape:collect="always"
         stdDeviation="5.125686"
         id="feGaussianBlur3199" />
    </filter>
    <radialGradient
       inkscape:collect="always"
       xlink:href="#linearGradient3175"
       id="radialGradient3212"
       gradientUnits="userSpaceOnUse"
       gradientTransform="matrix(1.105165,1.228066,-0.8683345,0.7814343,1473.1011,172.79095)"
       cx="127.83543"
       cy="1736.9607"
       fx="127.83543"
       fy="1736.9607"
       r="199.63403" />
    <radialGradient
       inkscape:collect="always"
       xlink:href="#linearGradient3159"
       id="radialGradient3214"
       gradientUnits="userSpaceOnUse"
       gradientTransform="matrix(0.5002429,1.4674024,-1.2539857,0.4274882,2324.404,828.29789)"
       cx="65.333183"
       cy="1808.0941"
       fx="65.333183"
       fy="1808.0941"
       r="195.94841" />
    <radialGradient
       inkscape:collect="always"
       xlink:href="#linearGradient3195"
       id="radialGradient3216"
       gradientUnits="userSpaceOnUse"
       gradientTransform="matrix(0.1992334,1.195744,-1.1829727,0.1971052,1996.7215,1257.5875)"
       cx="13.846332"
       cy="1679.6958"
       fx="13.846332"
       fy="1679.6958"
       r="199.13403" />
    <radialGradient
       inkscape:collect="always"
       xlink:href="#linearGradient3273"
       id="radialGradient3218"
       gradientUnits="userSpaceOnUse"
       gradientTransform="matrix(-0.1087803,1.4752039,-1.9297648,-0.1423,3255.8728,1823.5882)"
       cx="5.8389463"
       cy="1673.207"
       fx="5.8389463"
       fy="1673.207"
       r="199.13403" />
    <radialGradient
       inkscape:collect="always"
       xlink:href="#linearGradient3180"
       id="radialGradient3220"
       gradientUnits="userSpaceOnUse"
       gradientTransform="matrix(0.466646,1.4600162,-1.3948135,0.4458064,2272.5859,931.37623)"
       cx="-90.184074"
       cy="1676.9956"
       fx="-90.184074"
       fy="1676.9956"
       r="199.13403" />
  </defs>
  <sodipodi:namedview
     inkscape:window-height="889"
     inkscape:window-width="1280"
     inkscape:pageshadow="2"
     inkscape:pageopacity="0.0"
     guidetolerance="10.0"
     gridtolerance="10.0"
     objecttolerance="10.0"
     borderopacity="1.0"
     bordercolor="#666666"
     pagecolor="#ffffff"
     id="base"
     showgrid="false"
     inkscape:zoom="1.0794763"
     inkscape:cx="301.59582"
     inkscape:cy="213.01414"
     inkscape:window-x="-4"
     inkscape:window-y="44"
     inkscape:current-layer="g3203" />
  <g
     id="g3203"
     transform="translate(56.125654,-1559.3224)"
     inkscape:export-filename="/home/maidis/Belgeler/goreseeel/inkscape/dunya/dunya.png"
     inkscape:export-xdpi="114.54683"
     inkscape:export-ydpi="114.54683">
    <path
       transform="translate(-56.33397,20.961477)"
       d="M 399.57816,1737.5405 A 199.13403,199.13403 0 1 1 1.3100891,1737.5405 A 199.13403,199.13403 0 1 1 399.57816,1737.5405 z"
       sodipodi:ry="199.13403"
       sodipodi:rx="199.13403"
       sodipodi:cy="1737.5405"
       sodipodi:cx="200.44412"
       id="path3165"
       style="fill:url(#radialGradient3212);fill-opacity:1;fill-rule:evenodd;stroke:none;stroke-width:1px;stroke-linecap:butt;stroke-linejoin:miter;stroke-opacity:1"
       sodipodi:type="arc" />
    <path
       style="opacity:0.36909096;fill:#000000;fill-opacity:1;filter:url(#filter3267)"
       d="M 107.6879,1950.8501 C 108.46379,1950.0742 109.61796,1949.2663 110.25271,1949.0547 C 111.08659,1948.7767 111.02218,1948.0498 110.02057,1946.4349 C 108.85824,1944.5608 108.85283,1944.0638 109.98702,1943.3578 C 111.12888,1942.6471 119.33985,1939.8628 123.97756,1938.6138 C 126.23644,1938.0054 124.28516,1928.5202 120.35493,1921.0041 C 116.97634,1914.5429 116.87671,1914.0617 118.07724,1910.0041 C 119.0294,1906.7859 121.41251,1903.743 127.9421,1897.4081 C 132.67727,1892.8141 138.89271,1887.5578 141.75417,1885.7273 C 152.37297,1878.9345 168.58742,1855.2681 167.94409,1847.5008 C 167.63815,1843.8071 167.58486,1843.7639 163.63432,1844.0126 C 159.58329,1844.2676 157.18824,1844.8061 146.95245,1847.7628 C 142.64945,1849.0058 140.77424,1849.1385 139.22536,1848.3095 C 136.84492,1847.0356 135.13432,1844.1908 135.13432,1841.5061 C 135.13432,1840.4282 130.20626,1834.7337 123.63433,1828.2175 C 117.30933,1821.9462 112.13433,1815.9931 112.13433,1814.9883 C 112.13433,1812.6469 109.58386,1807.7103 107.08115,1805.2076 C 105.74748,1803.874 105.13433,1801.8878 105.13433,1798.9013 C 105.13433,1796.1093 104.09057,1792.4237 102.23158,1788.6513 C 98.033418,1780.1321 95.134328,1773.4358 95.134328,1772.2581 C 95.134328,1771.6947 94.735498,1770.4523 94.248038,1769.4972 C 92.679408,1766.424 90.198508,1756.966 90.733808,1756.0999 C 91.443418,1754.9517 96.855298,1755.0411 99.091668,1756.238 C 100.99411,1757.2561 104.59808,1762.8842 109.35202,1772.2608 C 110.88569,1775.2858 113.25145,1779.7858 114.60925,1782.2608 C 115.96706,1784.7358 117.09067,1788.2426 117.10616,1790.0537 C 117.12719,1792.5114 118.22202,1794.5402 121.42339,1798.0537 C 123.78237,1800.6426 127.04487,1804.7328 128.67339,1807.143 C 130.30189,1809.5533 132.437,1812.7033 133.41805,1814.143 C 134.40401,1815.59 135.00922,1817.8502 134.77124,1819.1965 C 134.53444,1820.536 135.1491,1823.461 136.13715,1825.6965 C 137.1252,1827.9319 138.41912,1830.9983 139.01252,1832.5108 C 140.20775,1835.5573 142.23316,1836.0516 144.13432,1833.7608 C 144.81901,1832.9358 147.01161,1832.2465 149.00676,1832.229 C 151.00192,1832.2115 153.50783,1831.5365 154.57545,1830.729 C 155.64307,1829.9215 157.29604,1829.2608 158.24872,1829.2608 C 159.2014,1829.2608 161.25671,1828.1873 162.81607,1826.8751 C 164.37543,1825.563 167.29874,1823.8011 169.31231,1822.9598 C 171.32587,1822.1185 173.4746,1820.4935 174.08726,1819.3487 C 175.26697,1817.1444 181.98554,1813.2608 184.61923,1813.2608 C 185.47976,1813.2608 186.6281,1812.0923 187.17111,1810.664 C 187.71412,1809.2358 189.03808,1807.8372 190.11324,1807.5561 C 191.1884,1807.2749 192.33846,1806.193 192.66893,1805.1518 C 192.99939,1804.1106 194.13929,1802.7933 195.20204,1802.2246 C 196.41599,1801.5749 197.13432,1800.1338 197.13432,1798.3481 C 197.13432,1796.7848 197.80932,1794.9455 198.63432,1794.2608 C 199.45932,1793.5761 200.13432,1792.353 200.13432,1791.5427 C 200.13432,1790.7324 200.92182,1788.732 201.88432,1787.0975 L 203.63432,1784.1255 L 200.13432,1781.2201 C 198.20932,1779.6221 195.42944,1778.3025 193.9568,1778.2877 C 192.1486,1778.2695 190.46056,1777.2147 188.75763,1775.0387 L 186.23598,1771.8167 L 183.9215,1773.991 C 182.64854,1775.1869 179.94012,1776.8618 177.90279,1777.7131 C 171.16197,1780.5296 167.13432,1779.31 167.13432,1774.4524 C 167.13432,1772.4515 166.7522,1772.1399 164.87601,1772.6108 C 161.76376,1773.3919 160.74854,1772.5127 158.28447,1766.9021 C 157.11084,1764.2298 154.79694,1760.5017 153.14246,1758.6173 C 148.47807,1753.3049 149.39778,1747.5815 155.21241,1745.736 C 158.80092,1744.5971 161.95506,1746.1408 164.98586,1750.5193 C 168.59256,1755.7298 171.41944,1758.3051 176.7144,1761.2042 L 180.79447,1763.4381 L 184.2144,1761.3532 C 188.77718,1758.5716 189.62828,1758.6881 193.57513,1762.635 C 196.77956,1765.8394 197.41999,1766.0444 206.3076,1766.7107 C 213.61968,1767.2589 216.64642,1767.071 220.15012,1765.8511 C 227.91999,1763.146 233.15596,1764.2512 236.88742,1769.384 C 237.57663,1770.3321 239.71413,1771.6271 241.63742,1772.2618 C 244.5072,1773.2089 245.13432,1773.9097 245.13432,1776.1694 C 245.13432,1778.0889 245.89767,1779.3314 247.65453,1780.2716 C 250.39582,1781.7387 251.71119,1781.0308 252.29874,1777.7723 C 252.49594,1776.6786 253.41359,1775.6381 254.33797,1775.4601 C 256.59394,1775.0256 259.13434,1780.102 259.13434,1785.0445 C 259.13434,1787.1801 259.44274,1789.2359 259.81964,1789.6128 C 260.67674,1790.4699 263.09894,1797.341 263.11924,1798.9727 C 263.12754,1799.6392 264.79744,1803.6883 266.83014,1807.9708 C 268.86284,1812.2532 271.72204,1819.3579 273.18394,1823.7589 C 274.81574,1828.6716 276.38094,1831.7608 277.23814,1831.7608 C 278.00604,1831.7608 279.71404,1829.5108 281.03364,1826.7608 C 283.13104,1822.39 283.44564,1820.2477 283.53364,1809.736 C 283.62464,1798.8646 283.85014,1797.4368 285.88434,1794.8511 C 287.12184,1793.2781 288.13434,1791.574 288.13434,1791.0643 C 288.13434,1790.5545 289.63704,1786.9027 291.47374,1782.9491 C 296.18024,1772.8181 297.39474,1769.3034 297.68134,1764.9852 C 297.95324,1760.8886 299.55904,1758.2608 301.79044,1758.2608 C 302.56664,1758.2608 304.14244,1756.6666 305.29204,1754.7181 C 307.28474,1751.3407 307.46994,1751.2545 309.25834,1752.873 C 310.29014,1753.8068 311.13434,1755.176 311.13434,1755.9158 C 311.13434,1756.6556 312.13324,1758.2598 313.35424,1759.4807 C 316.26444,1762.391 319.13434,1768.0966 319.13434,1770.9723 C 319.13434,1774.0174 320.94464,1773.8898 322.13434,1770.7608 C 323.54434,1767.0522 324.87444,1767.7201 325.61944,1772.5108 C 326.65194,1779.1496 327.10964,1780.2075 328.68784,1779.6019 C 329.50824,1779.2871 330.97504,1780.0699 332.06234,1781.4029 C 334.35464,1784.2131 334.61254,1783.7579 336.08504,1774.3009 C 337.28424,1766.5985 336.76034,1762.2253 333.45774,1752.371 C 330.86244,1744.627 330.87984,1745.2663 332.68884,1724.1086 C 333.20204,1718.105 332.87374,1714.3347 331.16494,1706.6086 C 326.81374,1686.9358 324.46764,1682.0342 309.36024,1661.052 C 308.10944,1659.3148 305.81244,1657.2767 304.25564,1656.5227 C 300.66534,1654.7839 296.15164,1645.8435 297.95414,1644.041 C 299.92804,1642.067 299.35344,1640.6937 293.63434,1633.7164 C 290.60934,1630.026 288.13434,1626.6734 288.13434,1626.2663 C 288.13434,1625.1801 275.30114,1612.3242 270.19694,1608.2971 C 263.03334,1602.6452 254.85387,1598.1009 252.80749,1598.636 C 250.19991,1599.3179 247.0966,1597.9821 241.67617,1593.8446 C 239.13416,1591.9043 235.60983,1589.6274 233.84432,1588.7849 C 232.07882,1587.9425 229.86241,1585.8956 228.91896,1584.2363 C 227.8602,1582.3742 225.43146,1580.4598 222.57398,1579.235 C 219.72314,1578.0129 217.87617,1576.4013 217.39753,1575.1593 C 216.68159,1573.3016 209.29962,1570.2903 205.50311,1569.2608 C 204.29788,1568.934 202.18459,1567.8844 198.96235,1567.2918 C 194.16379,1566.4093 191.94921,1565.7266 189.39182,1569.3279 C 188.6985,1570.3041 187.35938,1570.8709 186.36214,1570.6101 C 183.91933,1569.9713 179.13432,1571.9096 179.13432,1573.5379 C 179.13432,1575.5725 161.61732,1574.8359 157.51944,1572.629 C 153.27618,1570.3439 150.67851,1571.3955 151.60527,1575.0233 C 151.98992,1576.5289 152.28036,1579.0501 152.25071,1580.6258 C 152.21918,1582.3008 153.01104,1584.1699 154.15708,1585.1258 C 156.31562,1586.9262 157.18743,1590.4758 155.66385,1591.2608 C 155.1301,1591.5358 154.22997,1590.8608 153.66358,1589.7608 C 151.68823,1585.9245 150.98815,1585.2331 149.81522,1585.9604 C 149.16573,1586.3631 145.79388,1586.804 142.32222,1586.9401 C 137.24454,1587.1391 135.42058,1587.6836 132.9955,1589.7242 C 131.33745,1591.1193 129.35605,1592.2608 128.5924,1592.2608 C 127.82874,1592.2608 125.66636,1593.6108 123.78711,1595.2608 C 119.90853,1598.6663 118.90074,1598.8892 117.11458,1596.737 C 114.93754,1594.1138 117.17612,1590.8778 121.21154,1590.8145 C 123.09407,1590.785 124.63433,1590.2988 124.63433,1589.7341 C 124.63433,1589.1694 122.75169,1587.0065 120.45069,1584.9277 C 116.46802,1581.3296 116.08371,1581.1979 112.45069,1582.1877 C 110.35169,1582.7595 104.80933,1585.7408 100.13433,1588.8127 C 95.459328,1591.8846 90.284328,1594.6571 88.634328,1594.9737 C 83.921938,1595.8782 78.623538,1598.8907 75.760118,1602.2937 C 72.444018,1606.2347 72.404648,1607.6608 75.634328,1606.8502 C 78.541308,1606.1206 78.670258,1606.7339 76.634328,1611.6066 C 75.809328,1613.5811 75.134328,1615.661 75.134328,1616.2287 C 75.134328,1618.3276 78.064148,1617.1681 80.145068,1614.2457 C 81.325888,1612.5874 83.546368,1610.582 85.079478,1609.7892 C 86.859498,1608.8687 88.084598,1607.2595 88.469158,1605.3367 C 89.037088,1602.497 90.123428,1601.5345 99.253738,1595.7812 C 103.99484,1592.7938 107.38105,1591.1742 107.86803,1591.6612 C 108.16934,1591.9625 105.61675,1594.9058 102.1956,1598.2018 C 98.774458,1601.4978 96.262668,1604.6595 96.613848,1605.2277 C 96.965028,1605.7959 98.800808,1606.2608 100.69335,1606.2608 C 103.40284,1606.2608 104.13433,1606.6632 104.13433,1608.1538 C 104.13433,1610.2119 102.28328,1611.2608 98.651318,1611.2608 C 97.060538,1611.2608 95.683138,1612.3604 94.266828,1614.7608 C 92.779548,1617.2816 91.500058,1618.2608 89.693738,1618.2608 C 87.910558,1618.2608 86.730898,1619.1403 85.612108,1621.3038 C 83.660438,1625.0779 80.940038,1626.1635 74.580918,1625.7058 C 71.860298,1625.51 68.621828,1625.3298 67.384328,1625.3053 C 66.146828,1625.2808 65.134328,1624.6407 65.134328,1623.8828 C 65.134328,1623.1249 66.146828,1621.8178 67.384328,1620.9781 C 69.235808,1619.7219 69.405008,1619.2142 68.339638,1618.1115 C 67.264948,1616.9991 66.500258,1617.391 63.839638,1620.4176 C 61.509498,1623.0682 59.567818,1624.2169 56.728224,1624.6247 C 54.579874,1624.9333 51.654874,1626.2809 50.228224,1627.6195 C 46.498944,1631.1186 34.465515,1636.4334 29.720325,1636.6773 C 25.802055,1636.8787 25.645215,1637.0212 24.966535,1640.9968 C 24.110565,1646.0109 22.253715,1649.5156 17.674204,1654.7608 L 14.181844,1658.7608 L 8.6894039,1655.8128 C 5.6685539,1654.1914 3.0184139,1653.0664 2.8001939,1653.3128 C 2.5819639,1653.5592 1.1494539,1655.7858 -0.38318606,1658.2608 C -1.9158161,1660.7358 -4.1882261,1663.7165 -5.4329761,1664.8845 C -9.4492561,1668.6533 -11.785286,1674.4413 -11.162896,1679.0816 C -10.612296,1683.1866 -10.532216,1683.2608 -6.6557961,1683.2608 C -3.0479361,1683.2608 -2.0309661,1682.5743 5.1945639,1675.2608 C 9.5416639,1670.8608 13.869344,1667.2608 14.811634,1667.2608 C 15.753924,1667.2608 17.817064,1666.0233 19.396405,1664.5108 C 21.679015,1662.3248 23.330905,1661.7171 27.451115,1661.5478 C 30.301885,1661.4306 33.984325,1661.2056 35.634325,1661.0478 L 38.634325,1660.7608 L 38.295425,1667.3284 C 37.992475,1673.1993 38.231165,1674.2225 40.545424,1676.9728 C 41.969314,1678.665 43.134324,1680.7721 43.134324,1681.6552 C 43.134324,1682.5941 43.964724,1683.2608 45.134324,1683.2608 C 46.234324,1683.2608 47.134324,1683.1134 47.134324,1682.9332 C 47.134324,1682.753 46.009324,1679.837 44.634324,1676.4531 C 41.339914,1668.3455 41.365974,1663.3274 44.723214,1659.3375 C 48.628304,1654.6966 49.759864,1655.3479 50.439654,1662.6276 C 50.888354,1667.4326 51.884024,1670.4052 54.498414,1674.7452 C 57.900064,1680.3921 57.936514,1680.57 56.516534,1684.5947 C 54.934874,1689.0776 55.431464,1693.4326 57.743064,1695.3511 C 58.738934,1696.1776 59.019094,1697.509 58.599324,1699.4202 C 57.808604,1703.0203 60.365948,1703.3632 62.598198,1699.9563 C 63.831848,1698.0735 63.892318,1697.0799 62.928618,1694.5268 C 61.002018,1689.4226 62.926458,1686.5133 68.278118,1686.4394 C 74.477838,1686.3538 75.134328,1687.2991 75.134328,1696.3118 C 75.134328,1702.0887 75.544528,1704.5282 76.712308,1705.6959 C 79.321098,1708.3047 82.089658,1709.4098 84.277348,1708.7154 C 85.503768,1708.3262 87.692258,1708.7849 89.657108,1709.843 C 92.522058,1711.3859 93.519958,1711.4619 97.045928,1710.4054 C 107.21549,1707.3586 108.7233,1716.0231 100.77145,1731.814 C 96.762988,1739.774 95.393968,1740.6135 87.939958,1739.6826 C 84.471858,1739.2494 79.476218,1739.0013 76.838528,1739.1312 C 71.499838,1739.3941 68.380688,1737.863 59.345414,1730.5447 C 56.436504,1728.1886 53.049134,1726.2608 51.817914,1726.2608 C 48.286534,1726.2608 45.134324,1729.023 45.134324,1732.1175 C 45.134324,1737.4136 40.670604,1738.9523 36.836575,1734.9779 C 35.625335,1733.7224 33.402615,1731.9158 31.897185,1730.9633 C 30.391765,1730.0109 28.226235,1727.4011 27.084895,1725.1639 C 25.943565,1722.9267 23.714685,1720.353 22.131825,1719.4446 C 20.548965,1718.5362 18.602844,1716.1355 17.807104,1714.1097 C 16.449414,1710.6534 16.505404,1710.1905 18.716104,1706.5937 C 21.718645,1701.7086 21.929395,1695.7567 19.152435,1694.2705 C 18.062394,1693.6871 15.474894,1693.2641 13.402434,1693.3304 C 11.329974,1693.3967 7.4789439,1692.9179 4.8445839,1692.2664 C 1.5379439,1691.4487 -0.33005606,1691.4013 -1.1881861,1692.1135 C -4.4248061,1694.7997 -7.5992361,1695.1515 -11.197556,1693.2229 L -14.750586,1691.3186 L -19.920496,1694.7977 C -25.747586,1698.719 -27.614026,1700.8374 -30.840836,1707.1917 C -33.144756,1711.7287 -36.443536,1715.1683 -38.547586,1715.2275 C -40.316166,1715.2773 -45.308736,1722.6322 -49.427996,1731.2562 C -50.346266,1733.1787 -51.708906,1739.2537 -52.456086,1744.7562 C -53.203266,1750.2587 -54.666443,1757.8765 -54.770986,1761.7608 C -55.220732,1778.4713 -52.503673,1798.8469 -45.574946,1814.099 C -41.716886,1822.5917 -41.053086,1823.7192 -36.290046,1826.766 C -33.427976,1828.5969 -30.785086,1830.5822 -30.416956,1831.1778 C -30.048836,1831.7735 -27.908886,1832.2608 -25.661516,1832.2608 C -19.969856,1832.2608 -14.012306,1836.2527 -10.610306,1842.346 C -8.5714561,1845.9977 -6.6673761,1847.8343 -2.9865961,1849.6995 C 3.1341339,1852.8012 6.1864639,1858.3958 6.5557239,1867.19 C 6.6929739,1870.4584 7.4418039,1874.0304 8.2197939,1875.1276 C 8.9977839,1876.2249 13.009324,1881.4737 17.134324,1886.7918 C 28.756115,1901.7748 37.134325,1914.3096 37.134325,1916.7143 C 37.134325,1921.8435 48.375084,1931.1052 66.169558,1940.6377 C 72.169408,1943.8518 78.704498,1946.2463 88.169558,1948.6984 C 103.25392,1952.6064 105.66571,1952.8723 107.6879,1950.8501 z M 154.1796,1711.8154 C 153.41726,1710.8968 151.29521,1709.5192 149.46393,1708.7541 C 145.73921,1707.1978 145.36722,1705.3021 147.21393,1697.2877 C 148.019,1693.7939 147.95394,1692.5898 146.91674,1691.7877 C 143.48586,1689.1345 138.13432,1681.3221 138.13432,1678.9668 C 138.13432,1677.5434 137.68432,1676.1007 137.13432,1675.7608 C 134.80427,1674.3208 136.40737,1670.7405 141.6284,1665.7239 C 145.89112,1661.6281 147.62808,1660.568 149.3784,1660.9939 C 155.25955,1662.425 157.47766,1669.4194 152.63432,1671.2608 C 151.25932,1671.7836 150.15219,1672.785 150.17403,1673.4861 C 150.23223,1675.3547 158.36414,1683.8816 160.83634,1684.6662 C 162.00182,1685.0361 163.7383,1686.5337 164.69517,1687.994 C 166.37878,1690.5635 166.36552,1690.6953 164.28463,1692.077 C 161.75404,1693.7573 161.56263,1695.1193 163.64189,1696.6506 C 165.52312,1698.036 168.68598,1710.1092 167.48288,1711.3123 C 167.00136,1711.7938 164.123,1712.4797 161.08653,1712.8366 C 156.60885,1713.3629 155.30376,1713.1699 154.1796,1711.8154 z M 112.34088,1690.5265 C 109.97949,1690.3148 106.42919,1689.0434 104.45134,1687.7012 C 100.35034,1684.9182 98.273708,1684.758 92.634328,1686.7897 C 86.686538,1688.9324 84.869028,1688.614 81.151108,1684.7781 L 77.775548,1681.2954 L 81.049718,1674.7797 C 82.994108,1670.9103 86.172958,1666.6363 88.876608,1664.2565 L 93.429328,1660.249 L 96.531828,1662.0671 C 98.437828,1663.184 99.634328,1664.6941 99.634328,1665.9827 C 99.634328,1669.5651 100.95338,1669.6296 102.42084,1666.1189 C 104.19419,1661.8764 105.70055,1660.6899 110.38433,1659.8459 C 114.70828,1659.0668 115.19981,1660.2997 112.5828,1665.3605 C 110.74304,1668.9182 111.33684,1671.4756 114.4009,1673.1909 C 116.93857,1674.6115 124.13433,1684.0782 124.13433,1685.9962 C 124.13433,1687.9332 120.3508,1691.2824 118.38433,1691.0861 C 117.42183,1690.99 114.70228,1690.7382 112.34088,1690.5265 z M 144.52942,1951.3765 C 147.18085,1950.336 159.11439,1936.1379 159.12532,1934.0108 C 159.13785,1931.5747 157.81032,1931.8211 154.09923,1934.9438 C 152.34553,1936.4194 148.82351,1938.1539 146.27251,1938.7982 C 142.23019,1939.8192 141.59192,1940.3417 141.30424,1942.8653 C 141.1227,1944.4578 140.06306,1946.74 138.94947,1947.9368 C 137.83589,1949.1336 137.22349,1950.5961 137.58857,1951.1868 C 138.33774,1952.399 141.69049,1952.4906 144.52942,1951.3765 z M 287.73534,1834.7142 C 288.30864,1832.4301 287.69514,1830.2772 286.77504,1831.3441 C 285.76084,1832.5201 285.21704,1837.2608 286.09624,1837.2608 C 286.64624,1837.2608 287.38384,1836.1149 287.73534,1834.7142 z M 41.716664,1627.6149 C 43.968974,1626.1391 48.134324,1619.2539 48.134324,1617.0066 C 48.134324,1616.5234 45.434324,1618.2494 42.134324,1620.842 C 36.464335,1625.2966 35.257535,1627.0507 36.800995,1628.5941 C 37.836255,1629.6294 38.994194,1629.3987 41.716664,1627.6149 z M 40.134324,1616.7608 C 41.867664,1614.9158 42.089984,1614.2608 40.982954,1614.2608 C 40.157954,1614.2608 38.426075,1615.3858 37.134325,1616.7608 C 35.400985,1618.6059 35.178665,1619.2608 36.285695,1619.2608 C 37.110695,1619.2608 38.842574,1618.1358 40.134324,1616.7608 z M 55.692254,1606.4854 C 55.010384,1605.8035 49.134324,1611.8777 49.134324,1613.2644 C 49.134324,1613.6673 50.763474,1612.4605 52.754654,1610.5826 C 54.745834,1608.7046 56.067754,1606.8609 55.692254,1606.4854 z M 76.134328,1584.2608 C 76.134328,1583.7108 75.684328,1583.2608 75.134328,1583.2608 C 74.584328,1583.2608 74.134328,1583.7108 74.134328,1584.2608 C 74.134328,1584.8108 74.584328,1585.2608 75.134328,1585.2608 C 75.684328,1585.2608 76.134328,1584.8108 76.134328,1584.2608 z M 148.13432,1581.7608 C 147.42757,1580.9092 146.62432,1580.4375 146.34932,1580.7125 C 146.07432,1580.9875 146.42757,1581.9092 147.13432,1582.7608 C 147.84107,1583.6124 148.64432,1584.0841 148.91932,1583.8091 C 149.19432,1583.5341 148.84107,1582.6124 148.13432,1581.7608 z M 65.634328,1578.0629 C 69.761988,1577.0984 76.774428,1576.056 90.634328,1574.3466 C 95.034328,1573.8039 100.65933,1572.7073 103.13433,1571.9096 C 105.60933,1571.1119 112.92183,1569.2166 119.38433,1567.6977 C 125.84683,1566.1789 131.13432,1564.6103 131.13432,1564.212 C 131.13432,1562.6747 124.36599,1562.5507 118.67377,1563.9837 C 115.39546,1564.8091 109.09546,1566.0654 104.67377,1566.7756 C 79.819558,1570.7676 69.003168,1573.4671 60.634328,1577.7668 C 55.503784,1580.4028 55.597274,1580.4084 65.634328,1578.0629 z"
       id="path3209"
       sodipodi:nodetypes="csssssssssssssssssssssssssssssssssssssssssssssscccscccssssssscccssssssssssssssssssssssssssssssssssssssssssssssssssssssssssssssssssssssssssssssssssssssssssssssssscccssssssssscccssssssssssssssssssssssssssssssssssscccsssssssssssssssssccsssssssssssssssccssccccccsssssssccssssssccssccsssccsssccssccsssccsssccsssssssc" />
    <path
       sodipodi:nodetypes="csssssssssssssssssssssssssssssssssssssssssssssscccscccssssssscccssssssssssssssssssssssssssssssssssssssssssssssssssssssssssssssssssssssssssssssssssssssssssssssssscccssssssssscccssssssssssssssssssssssssssssssssssscccsssssssssssssssssccsssssssssssssssccssccccccsssssssccssssssccssccsssccsssccssccsssccsssccsssssssc"
       id="path2495"
       d="M 107.6879,1950.8501 C 108.46379,1950.0742 109.61796,1949.2663 110.25271,1949.0547 C 111.08659,1948.7767 111.02218,1948.0498 110.02057,1946.4349 C 108.85824,1944.5608 108.85283,1944.0638 109.98702,1943.3578 C 111.12888,1942.6471 119.33985,1939.8628 123.97756,1938.6138 C 126.23644,1938.0054 124.28516,1928.5202 120.35493,1921.0041 C 116.97634,1914.5429 116.87671,1914.0617 118.07724,1910.0041 C 119.0294,1906.7859 121.41251,1903.743 127.9421,1897.4081 C 132.67727,1892.8141 138.89271,1887.5578 141.75417,1885.7273 C 152.37297,1878.9345 168.58742,1855.2681 167.94409,1847.5008 C 167.63815,1843.8071 167.58486,1843.7639 163.63432,1844.0126 C 159.58329,1844.2676 157.18824,1844.8061 146.95245,1847.7628 C 142.64945,1849.0058 140.77424,1849.1385 139.22536,1848.3095 C 136.84492,1847.0356 135.13432,1844.1908 135.13432,1841.5061 C 135.13432,1840.4282 130.20626,1834.7337 123.63433,1828.2175 C 117.30933,1821.9462 112.13433,1815.9931 112.13433,1814.9883 C 112.13433,1812.6469 109.58386,1807.7103 107.08115,1805.2076 C 105.74748,1803.874 105.13433,1801.8878 105.13433,1798.9013 C 105.13433,1796.1093 104.09057,1792.4237 102.23158,1788.6513 C 98.033418,1780.1321 95.134328,1773.4358 95.134328,1772.2581 C 95.134328,1771.6947 94.735498,1770.4523 94.248038,1769.4972 C 92.679408,1766.424 90.198508,1756.966 90.733808,1756.0999 C 91.443418,1754.9517 96.855298,1755.0411 99.091668,1756.238 C 100.99411,1757.2561 104.59808,1762.8842 109.35202,1772.2608 C 110.88569,1775.2858 113.25145,1779.7858 114.60925,1782.2608 C 115.96706,1784.7358 117.09067,1788.2426 117.10616,1790.0537 C 117.12719,1792.5114 118.22202,1794.5402 121.42339,1798.0537 C 123.78237,1800.6426 127.04487,1804.7328 128.67339,1807.143 C 130.30189,1809.5533 132.437,1812.7033 133.41805,1814.143 C 134.40401,1815.59 135.00922,1817.8502 134.77124,1819.1965 C 134.53444,1820.536 135.1491,1823.461 136.13715,1825.6965 C 137.1252,1827.9319 138.41912,1830.9983 139.01252,1832.5108 C 140.20775,1835.5573 142.23316,1836.0516 144.13432,1833.7608 C 144.81901,1832.9358 147.01161,1832.2465 149.00676,1832.229 C 151.00192,1832.2115 153.50783,1831.5365 154.57545,1830.729 C 155.64307,1829.9215 157.29604,1829.2608 158.24872,1829.2608 C 159.2014,1829.2608 161.25671,1828.1873 162.81607,1826.8751 C 164.37543,1825.563 167.29874,1823.8011 169.31231,1822.9598 C 171.32587,1822.1185 173.4746,1820.4935 174.08726,1819.3487 C 175.26697,1817.1444 181.98554,1813.2608 184.61923,1813.2608 C 185.47976,1813.2608 186.6281,1812.0923 187.17111,1810.664 C 187.71412,1809.2358 189.03808,1807.8372 190.11324,1807.5561 C 191.1884,1807.2749 192.33846,1806.193 192.66893,1805.1518 C 192.99939,1804.1106 194.13929,1802.7933 195.20204,1802.2246 C 196.41599,1801.5749 197.13432,1800.1338 197.13432,1798.3481 C 197.13432,1796.7848 197.80932,1794.9455 198.63432,1794.2608 C 199.45932,1793.5761 200.13432,1792.353 200.13432,1791.5427 C 200.13432,1790.7324 200.92182,1788.732 201.88432,1787.0975 L 203.63432,1784.1255 L 200.13432,1781.2201 C 198.20932,1779.6221 195.42944,1778.3025 193.9568,1778.2877 C 192.1486,1778.2695 190.46056,1777.2147 188.75763,1775.0387 L 186.23598,1771.8167 L 183.9215,1773.991 C 182.64854,1775.1869 179.94012,1776.8618 177.90279,1777.7131 C 171.16197,1780.5296 167.13432,1779.31 167.13432,1774.4524 C 167.13432,1772.4515 166.7522,1772.1399 164.87601,1772.6108 C 161.76376,1773.3919 160.74854,1772.5127 158.28447,1766.9021 C 157.11084,1764.2298 154.79694,1760.5017 153.14246,1758.6173 C 148.47807,1753.3049 149.39778,1747.5815 155.21241,1745.736 C 158.80092,1744.5971 161.95506,1746.1408 164.98586,1750.5193 C 168.59256,1755.7298 171.41944,1758.3051 176.7144,1761.2042 L 180.79447,1763.4381 L 184.2144,1761.3532 C 188.77718,1758.5716 189.62828,1758.6881 193.57513,1762.635 C 196.77956,1765.8394 197.41999,1766.0444 206.3076,1766.7107 C 213.61968,1767.2589 216.64642,1767.071 220.15012,1765.8511 C 227.91999,1763.146 233.15596,1764.2512 236.88742,1769.384 C 237.57663,1770.3321 239.71413,1771.6271 241.63742,1772.2618 C 244.5072,1773.2089 245.13432,1773.9097 245.13432,1776.1694 C 245.13432,1778.0889 245.89767,1779.3314 247.65453,1780.2716 C 250.39582,1781.7387 251.71119,1781.0308 252.29874,1777.7723 C 252.49594,1776.6786 253.41359,1775.6381 254.33797,1775.4601 C 256.59394,1775.0256 259.13434,1780.102 259.13434,1785.0445 C 259.13434,1787.1801 259.44274,1789.2359 259.81964,1789.6128 C 260.67674,1790.4699 263.09894,1797.341 263.11924,1798.9727 C 263.12754,1799.6392 264.79744,1803.6883 266.83014,1807.9708 C 268.86284,1812.2532 271.72204,1819.3579 273.18394,1823.7589 C 274.81574,1828.6716 276.38094,1831.7608 277.23814,1831.7608 C 278.00604,1831.7608 279.71404,1829.5108 281.03364,1826.7608 C 283.13104,1822.39 283.44564,1820.2477 283.53364,1809.736 C 283.62464,1798.8646 283.85014,1797.4368 285.88434,1794.8511 C 287.12184,1793.2781 288.13434,1791.574 288.13434,1791.0643 C 288.13434,1790.5545 289.63704,1786.9027 291.47374,1782.9491 C 296.18024,1772.8181 297.39474,1769.3034 297.68134,1764.9852 C 297.95324,1760.8886 299.55904,1758.2608 301.79044,1758.2608 C 302.56664,1758.2608 304.14244,1756.6666 305.29204,1754.7181 C 307.28474,1751.3407 307.46994,1751.2545 309.25834,1752.873 C 310.29014,1753.8068 311.13434,1755.176 311.13434,1755.9158 C 311.13434,1756.6556 312.13324,1758.2598 313.35424,1759.4807 C 316.26444,1762.391 319.13434,1768.0966 319.13434,1770.9723 C 319.13434,1774.0174 320.94464,1773.8898 322.13434,1770.7608 C 323.54434,1767.0522 324.87444,1767.7201 325.61944,1772.5108 C 326.65194,1779.1496 327.10964,1780.2075 328.68784,1779.6019 C 329.50824,1779.2871 330.97504,1780.0699 332.06234,1781.4029 C 334.35464,1784.2131 334.61254,1783.7579 336.08504,1774.3009 C 337.28424,1766.5985 336.76034,1762.2253 333.45774,1752.371 C 330.86244,1744.627 330.87984,1745.2663 332.68884,1724.1086 C 333.20204,1718.105 332.87374,1714.3347 331.16494,1706.6086 C 326.81374,1686.9358 324.46764,1682.0342 309.36024,1661.052 C 308.10944,1659.3148 305.81244,1657.2767 304.25564,1656.5227 C 300.66534,1654.7839 296.15164,1645.8435 297.95414,1644.041 C 299.92804,1642.067 299.35344,1640.6937 293.63434,1633.7164 C 290.60934,1630.026 288.13434,1626.6734 288.13434,1626.2663 C 288.13434,1625.1801 275.30114,1612.3242 270.19694,1608.2971 C 263.03334,1602.6452 254.85387,1598.1009 252.80749,1598.636 C 250.19991,1599.3179 247.0966,1597.9821 241.67617,1593.8446 C 239.13416,1591.9043 235.60983,1589.6274 233.84432,1588.7849 C 232.07882,1587.9425 229.86241,1585.8956 228.91896,1584.2363 C 227.8602,1582.3742 225.43146,1580.4598 222.57398,1579.235 C 219.72314,1578.0129 217.87617,1576.4013 217.39753,1575.1593 C 216.68159,1573.3016 209.29962,1570.2903 205.50311,1569.2608 C 204.29788,1568.934 202.18459,1567.8844 198.96235,1567.2918 C 194.16379,1566.4093 191.94921,1565.7266 189.39182,1569.3279 C 188.6985,1570.3041 187.35938,1570.8709 186.36214,1570.6101 C 183.91933,1569.9713 179.13432,1571.9096 179.13432,1573.5379 C 179.13432,1575.5725 161.61732,1574.8359 157.51944,1572.629 C 153.27618,1570.3439 150.67851,1571.3955 151.60527,1575.0233 C 151.98992,1576.5289 152.28036,1579.0501 152.25071,1580.6258 C 152.21918,1582.3008 153.01104,1584.1699 154.15708,1585.1258 C 156.31562,1586.9262 157.18743,1590.4758 155.66385,1591.2608 C 155.1301,1591.5358 154.22997,1590.8608 153.66358,1589.7608 C 151.68823,1585.9245 150.98815,1585.2331 149.81522,1585.9604 C 149.16573,1586.3631 145.79388,1586.804 142.32222,1586.9401 C 137.24454,1587.1391 135.42058,1587.6836 132.9955,1589.7242 C 131.33745,1591.1193 129.35605,1592.2608 128.5924,1592.2608 C 127.82874,1592.2608 125.66636,1593.6108 123.78711,1595.2608 C 119.90853,1598.6663 118.90074,1598.8892 117.11458,1596.737 C 114.93754,1594.1138 117.17612,1590.8778 121.21154,1590.8145 C 123.09407,1590.785 124.63433,1590.2988 124.63433,1589.7341 C 124.63433,1589.1694 122.75169,1587.0065 120.45069,1584.9277 C 116.46802,1581.3296 116.08371,1581.1979 112.45069,1582.1877 C 110.35169,1582.7595 104.80933,1585.7408 100.13433,1588.8127 C 95.459328,1591.8846 90.284328,1594.6571 88.634328,1594.9737 C 83.921938,1595.8782 78.623538,1598.8907 75.760118,1602.2937 C 72.444018,1606.2347 72.404648,1607.6608 75.634328,1606.8502 C 78.541308,1606.1206 78.670258,1606.7339 76.634328,1611.6066 C 75.809328,1613.5811 75.134328,1615.661 75.134328,1616.2287 C 75.134328,1618.3276 78.064148,1617.1681 80.145068,1614.2457 C 81.325888,1612.5874 83.546368,1610.582 85.079478,1609.7892 C 86.859498,1608.8687 88.084598,1607.2595 88.469158,1605.3367 C 89.037088,1602.497 90.123428,1601.5345 99.253738,1595.7812 C 103.99484,1592.7938 107.38105,1591.1742 107.86803,1591.6612 C 108.16934,1591.9625 105.61675,1594.9058 102.1956,1598.2018 C 98.774458,1601.4978 96.262668,1604.6595 96.613848,1605.2277 C 96.965028,1605.7959 98.800808,1606.2608 100.69335,1606.2608 C 103.40284,1606.2608 104.13433,1606.6632 104.13433,1608.1538 C 104.13433,1610.2119 102.28328,1611.2608 98.651318,1611.2608 C 97.060538,1611.2608 95.683138,1612.3604 94.266828,1614.7608 C 92.779548,1617.2816 91.500058,1618.2608 89.693738,1618.2608 C 87.910558,1618.2608 86.730898,1619.1403 85.612108,1621.3038 C 83.660438,1625.0779 80.940038,1626.1635 74.580918,1625.7058 C 71.860298,1625.51 68.621828,1625.3298 67.384328,1625.3053 C 66.146828,1625.2808 65.134328,1624.6407 65.134328,1623.8828 C 65.134328,1623.1249 66.146828,1621.8178 67.384328,1620.9781 C 69.235808,1619.7219 69.405008,1619.2142 68.339638,1618.1115 C 67.264948,1616.9991 66.500258,1617.391 63.839638,1620.4176 C 61.509498,1623.0682 59.567818,1624.2169 56.728224,1624.6247 C 54.579874,1624.9333 51.654874,1626.2809 50.228224,1627.6195 C 46.498944,1631.1186 34.465515,1636.4334 29.720325,1636.6773 C 25.802055,1636.8787 25.645215,1637.0212 24.966535,1640.9968 C 24.110565,1646.0109 22.253715,1649.5156 17.674204,1654.7608 L 14.181844,1658.7608 L 8.6894039,1655.8128 C 5.6685539,1654.1914 3.0184139,1653.0664 2.8001939,1653.3128 C 2.5819639,1653.5592 1.1494539,1655.7858 -0.38318606,1658.2608 C -1.9158161,1660.7358 -4.1882261,1663.7165 -5.4329761,1664.8845 C -9.4492561,1668.6533 -11.785286,1674.4413 -11.162896,1679.0816 C -10.612296,1683.1866 -10.532216,1683.2608 -6.6557961,1683.2608 C -3.0479361,1683.2608 -2.0309661,1682.5743 5.1945639,1675.2608 C 9.5416639,1670.8608 13.869344,1667.2608 14.811634,1667.2608 C 15.753924,1667.2608 17.817064,1666.0233 19.396405,1664.5108 C 21.679015,1662.3248 23.330905,1661.7171 27.451115,1661.5478 C 30.301885,1661.4306 33.984325,1661.2056 35.634325,1661.0478 L 38.634325,1660.7608 L 38.295425,1667.3284 C 37.992475,1673.1993 38.231165,1674.2225 40.545424,1676.9728 C 41.969314,1678.665 43.134324,1680.7721 43.134324,1681.6552 C 43.134324,1682.5941 43.964724,1683.2608 45.134324,1683.2608 C 46.234324,1683.2608 47.134324,1683.1134 47.134324,1682.9332 C 47.134324,1682.753 46.009324,1679.837 44.634324,1676.4531 C 41.339914,1668.3455 41.365974,1663.3274 44.723214,1659.3375 C 48.628304,1654.6966 49.759864,1655.3479 50.439654,1662.6276 C 50.888354,1667.4326 51.884024,1670.4052 54.498414,1674.7452 C 57.900064,1680.3921 57.936514,1680.57 56.516534,1684.5947 C 54.934874,1689.0776 55.431464,1693.4326 57.743064,1695.3511 C 58.738934,1696.1776 59.019094,1697.509 58.599324,1699.4202 C 57.808604,1703.0203 60.365948,1703.3632 62.598198,1699.9563 C 63.831848,1698.0735 63.892318,1697.0799 62.928618,1694.5268 C 61.002018,1689.4226 62.926458,1686.5133 68.278118,1686.4394 C 74.477838,1686.3538 75.134328,1687.2991 75.134328,1696.3118 C 75.134328,1702.0887 75.544528,1704.5282 76.712308,1705.6959 C 79.321098,1708.3047 82.089658,1709.4098 84.277348,1708.7154 C 85.503768,1708.3262 87.692258,1708.7849 89.657108,1709.843 C 92.522058,1711.3859 93.519958,1711.4619 97.045928,1710.4054 C 107.21549,1707.3586 108.7233,1716.0231 100.77145,1731.814 C 96.762988,1739.774 95.393968,1740.6135 87.939958,1739.6826 C 84.471858,1739.2494 79.476218,1739.0013 76.838528,1739.1312 C 71.499838,1739.3941 68.380688,1737.863 59.345414,1730.5447 C 56.436504,1728.1886 53.049134,1726.2608 51.817914,1726.2608 C 48.286534,1726.2608 45.134324,1729.023 45.134324,1732.1175 C 45.134324,1737.4136 40.670604,1738.9523 36.836575,1734.9779 C 35.625335,1733.7224 33.402615,1731.9158 31.897185,1730.9633 C 30.391765,1730.0109 28.226235,1727.4011 27.084895,1725.1639 C 25.943565,1722.9267 23.714685,1720.353 22.131825,1719.4446 C 20.548965,1718.5362 18.602844,1716.1355 17.807104,1714.1097 C 16.449414,1710.6534 16.505404,1710.1905 18.716104,1706.5937 C 21.718645,1701.7086 21.929395,1695.7567 19.152435,1694.2705 C 18.062394,1693.6871 15.474894,1693.2641 13.402434,1693.3304 C 11.329974,1693.3967 7.4789439,1692.9179 4.8445839,1692.2664 C 1.5379439,1691.4487 -0.33005606,1691.4013 -1.1881861,1692.1135 C -4.4248061,1694.7997 -7.5992361,1695.1515 -11.197556,1693.2229 L -14.750586,1691.3186 L -19.920496,1694.7977 C -25.747586,1698.719 -27.614026,1700.8374 -30.840836,1707.1917 C -33.144756,1711.7287 -36.443536,1715.1683 -38.547586,1715.2275 C -40.316166,1715.2773 -45.308736,1722.6322 -49.427996,1731.2562 C -50.346266,1733.1787 -51.708906,1739.2537 -52.456086,1744.7562 C -53.203266,1750.2587 -54.666443,1757.8765 -54.770986,1761.7608 C -55.220732,1778.4713 -52.503673,1798.8469 -45.574946,1814.099 C -41.716886,1822.5917 -41.053086,1823.7192 -36.290046,1826.766 C -33.427976,1828.5969 -30.785086,1830.5822 -30.416956,1831.1778 C -30.048836,1831.7735 -27.908886,1832.2608 -25.661516,1832.2608 C -19.969856,1832.2608 -14.012306,1836.2527 -10.610306,1842.346 C -8.5714561,1845.9977 -6.6673761,1847.8343 -2.9865961,1849.6995 C 3.1341339,1852.8012 6.1864639,1858.3958 6.5557239,1867.19 C 6.6929739,1870.4584 7.4418039,1874.0304 8.2197939,1875.1276 C 8.9977839,1876.2249 13.009324,1881.4737 17.134324,1886.7918 C 28.756115,1901.7748 37.134325,1914.3096 37.134325,1916.7143 C 37.134325,1921.8435 48.375084,1931.1052 66.169558,1940.6377 C 72.169408,1943.8518 78.704498,1946.2463 88.169558,1948.6984 C 103.25392,1952.6064 105.66571,1952.8723 107.6879,1950.8501 z M 154.1796,1711.8154 C 153.41726,1710.8968 151.29521,1709.5192 149.46393,1708.7541 C 145.73921,1707.1978 145.36722,1705.3021 147.21393,1697.2877 C 148.019,1693.7939 147.95394,1692.5898 146.91674,1691.7877 C 143.48586,1689.1345 138.13432,1681.3221 138.13432,1678.9668 C 138.13432,1677.5434 137.68432,1676.1007 137.13432,1675.7608 C 134.80427,1674.3208 136.40737,1670.7405 141.6284,1665.7239 C 145.89112,1661.6281 147.62808,1660.568 149.3784,1660.9939 C 155.25955,1662.425 157.47766,1669.4194 152.63432,1671.2608 C 151.25932,1671.7836 150.15219,1672.785 150.17403,1673.4861 C 150.23223,1675.3547 158.36414,1683.8816 160.83634,1684.6662 C 162.00182,1685.0361 163.7383,1686.5337 164.69517,1687.994 C 166.37878,1690.5635 166.36552,1690.6953 164.28463,1692.077 C 161.75404,1693.7573 161.56263,1695.1193 163.64189,1696.6506 C 165.52312,1698.036 168.68598,1710.1092 167.48288,1711.3123 C 167.00136,1711.7938 164.123,1712.4797 161.08653,1712.8366 C 156.60885,1713.3629 155.30376,1713.1699 154.1796,1711.8154 z M 112.34088,1690.5265 C 109.97949,1690.3148 106.42919,1689.0434 104.45134,1687.7012 C 100.35034,1684.9182 98.273708,1684.758 92.634328,1686.7897 C 86.686538,1688.9324 84.869028,1688.614 81.151108,1684.7781 L 77.775548,1681.2954 L 81.049718,1674.7797 C 82.994108,1670.9103 86.172958,1666.6363 88.876608,1664.2565 L 93.429328,1660.249 L 96.531828,1662.0671 C 98.437828,1663.184 99.634328,1664.6941 99.634328,1665.9827 C 99.634328,1669.5651 100.95338,1669.6296 102.42084,1666.1189 C 104.19419,1661.8764 105.70055,1660.6899 110.38433,1659.8459 C 114.70828,1659.0668 115.19981,1660.2997 112.5828,1665.3605 C 110.74304,1668.9182 111.33684,1671.4756 114.4009,1673.1909 C 116.93857,1674.6115 124.13433,1684.0782 124.13433,1685.9962 C 124.13433,1687.9332 120.3508,1691.2824 118.38433,1691.0861 C 117.42183,1690.99 114.70228,1690.7382 112.34088,1690.5265 z M 144.52942,1951.3765 C 147.18085,1950.336 159.11439,1936.1379 159.12532,1934.0108 C 159.13785,1931.5747 157.81032,1931.8211 154.09923,1934.9438 C 152.34553,1936.4194 148.82351,1938.1539 146.27251,1938.7982 C 142.23019,1939.8192 141.59192,1940.3417 141.30424,1942.8653 C 141.1227,1944.4578 140.06306,1946.74 138.94947,1947.9368 C 137.83589,1949.1336 137.22349,1950.5961 137.58857,1951.1868 C 138.33774,1952.399 141.69049,1952.4906 144.52942,1951.3765 z M 287.73534,1834.7142 C 288.30864,1832.4301 287.69514,1830.2772 286.77504,1831.3441 C 285.76084,1832.5201 285.21704,1837.2608 286.09624,1837.2608 C 286.64624,1837.2608 287.38384,1836.1149 287.73534,1834.7142 z M 41.716664,1627.6149 C 43.968974,1626.1391 48.134324,1619.2539 48.134324,1617.0066 C 48.134324,1616.5234 45.434324,1618.2494 42.134324,1620.842 C 36.464335,1625.2966 35.257535,1627.0507 36.800995,1628.5941 C 37.836255,1629.6294 38.994194,1629.3987 41.716664,1627.6149 z M 40.134324,1616.7608 C 41.867664,1614.9158 42.089984,1614.2608 40.982954,1614.2608 C 40.157954,1614.2608 38.426075,1615.3858 37.134325,1616.7608 C 35.400985,1618.6059 35.178665,1619.2608 36.285695,1619.2608 C 37.110695,1619.2608 38.842574,1618.1358 40.134324,1616.7608 z M 55.692254,1606.4854 C 55.010384,1605.8035 49.134324,1611.8777 49.134324,1613.2644 C 49.134324,1613.6673 50.763474,1612.4605 52.754654,1610.5826 C 54.745834,1608.7046 56.067754,1606.8609 55.692254,1606.4854 z M 76.134328,1584.2608 C 76.134328,1583.7108 75.684328,1583.2608 75.134328,1583.2608 C 74.584328,1583.2608 74.134328,1583.7108 74.134328,1584.2608 C 74.134328,1584.8108 74.584328,1585.2608 75.134328,1585.2608 C 75.684328,1585.2608 76.134328,1584.8108 76.134328,1584.2608 z M 148.13432,1581.7608 C 147.42757,1580.9092 146.62432,1580.4375 146.34932,1580.7125 C 146.07432,1580.9875 146.42757,1581.9092 147.13432,1582.7608 C 147.84107,1583.6124 148.64432,1584.0841 148.91932,1583.8091 C 149.19432,1583.5341 148.84107,1582.6124 148.13432,1581.7608 z M 65.634328,1578.0629 C 69.761988,1577.0984 76.774428,1576.056 90.634328,1574.3466 C 95.034328,1573.8039 100.65933,1572.7073 103.13433,1571.9096 C 105.60933,1571.1119 112.92183,1569.2166 119.38433,1567.6977 C 125.84683,1566.1789 131.13432,1564.6103 131.13432,1564.212 C 131.13432,1562.6747 124.36599,1562.5507 118.67377,1563.9837 C 115.39546,1564.8091 109.09546,1566.0654 104.67377,1566.7756 C 79.819558,1570.7676 69.003168,1573.4671 60.634328,1577.7668 C 55.503784,1580.4028 55.597274,1580.4084 65.634328,1578.0629 z"
       style="fill:url(#radialGradient3214);fill-opacity:1" />
    <path
       sodipodi:type="arc"
       style="fill:url(#radialGradient3216);fill-opacity:1;fill-rule:evenodd;stroke:none;stroke-width:1px;stroke-linecap:butt;stroke-linejoin:miter;stroke-opacity:1"
       id="path3193"
       sodipodi:cx="200.44412"
       sodipodi:cy="1737.5405"
       sodipodi:rx="199.13403"
       sodipodi:ry="199.13403"
       d="M 399.57816,1737.5405 A 199.13403,199.13403 0 1 1 1.3100891,1737.5405 A 199.13403,199.13403 0 1 1 399.57816,1737.5405 z"
       transform="translate(-57.435743,20.958068)" />
    <path
       transform="translate(-57.435743,20.958068)"
       d="M 399.57816,1737.5405 A 199.13403,199.13403 0 1 1 1.3100891,1737.5405 A 199.13403,199.13403 0 1 1 399.57816,1737.5405 z"
       sodipodi:ry="199.13403"
       sodipodi:rx="199.13403"
       sodipodi:cy="1737.5405"
       sodipodi:cx="200.44412"
       id="path3285"
       style="fill:url(#radialGradient3218);fill-opacity:1;fill-rule:evenodd;stroke:none;stroke-width:1px;stroke-linecap:butt;stroke-linejoin:miter;stroke-opacity:1"
       sodipodi:type="arc" />
    <path
       transform="matrix(-0.957313,-0.2890533,0.2890533,-0.957313,-163.64008,3479.8078)"
       style="fill:url(#radialGradient3220);fill-opacity:1;fill-rule:evenodd;stroke:none;stroke-width:1px;stroke-linecap:butt;stroke-linejoin:miter;stroke-opacity:1"
       d="M 399.57816,1737.5405 C 399.57816,1847.4625 310.36611,1936.6746 200.44412,1936.6746 C 90.522136,1936.6746 1.3100891,1847.4625 1.3100891,1737.5405 C 1.3100891,1627.6185 90.522136,1538.4065 200.44412,1538.4065 C 310.36611,1538.4065 399.57816,1627.6185 399.57816,1737.5405 z"
       id="path2408" />
    <path
       transform="matrix(0.9990162,-4.4345742e-2,4.4345742e-2,0.9990162,-71.66061,4.3077244)"
       sodipodi:nodetypes="ccc"
       id="path3198"
       d="M 92.750756,1567.6849 C 187.18085,1549.3875 -17.311669,1592.8642 -46.730593,1730.7758 C -63.625597,1640.2839 38.512579,1590.8807 92.750756,1567.6849 z"
       style="opacity:0.56060606;fill:#ffffff;fill-rule:evenodd;stroke:none;stroke-width:1px;stroke-linecap:butt;stroke-linejoin:miter;stroke-opacity:1;filter:url(#filter3197)" />
  </g>
</svg>
